<?xml version="1.0" encoding="UTF-8"?><svg id="Layer_2" xmlns="http://www.w3.org/2000/svg" viewBox="0 0 46.32 46.34"><defs><style>.cls-1{fill:#fff;opacity:0;}.cls-1,.cls-2,.cls-3{stroke-width:0px;}.cls-2{fill:#826eff;}.cls-3{fill:#6858cc;}</style></defs><g id="Layer_1-2"><rect class="cls-1" width="46.32" height="46.34"/><path class="cls-2" d="m33.09,35.58c-2.39,1.28-5.08,1.92-8.07,1.92-2.81,0-5.32-.6-7.52-1.82-2.2-1.22-3.91-2.91-5.15-5.09-1.24-2.17-1.86-4.65-1.86-7.42s.62-5.31,1.86-7.49,2.96-3.86,5.18-5.06c2.22-1.19,4.76-1.79,7.62-1.79,4.52,0,8.38,1.69,11.58,5.06l6.66-6.15c-2.18-2.51-4.86-4.43-8.06-5.76-3.2-1.32-6.77-1.98-10.69-1.98-4.7,0-8.92.99-12.67,2.98-3.76,1.98-6.69,4.73-8.8,8.25-2.12,3.52-3.17,7.5-3.17,11.94s1.05,8.41,3.17,11.93c2.11,3.52,5.02,6.28,8.73,8.26s7.89,2.98,12.55,2.98c3.24,0,6.46-.5,9.66-1.48s6.01-2.39,8.44-4.22v-17.47h-9.46v12.41Z"/><polygon class="cls-3" points="42.55 23.17 42.55 40.64 33.09 32.12 33.08 32.11 23.16 23.17 42.55 23.17"/></g></svg>